<svg id="Layer_1" data-name="Layer 1" xmlns="http://www.w3.org/2000/svg" viewBox="0 0 189.75 189.83"><defs><style>.cls-1{fill:white;}</style></defs><title>ecovis_logo_</title><path class="cls-1" d="M722.17,263.75c2.41.24,4.83.43,7.24.72a93.94,93.94,0,0,1,28.76,8.24,2.35,2.35,0,0,1,.36.26c-1.95,1.12-3.88,2.17-5.76,3.33-18.95,11.71-33.39,27.39-42.23,48a83.18,83.18,0,0,0-5.43,17.95c-.15.84-.46,1.14-1.38,1.14q-39.06,0-78.11,0c-1.08,0-1.25-.3-1.07-1.3a95,95,0,0,1,68-74.83,89.46,89.46,0,0,1,20.18-3.31,2.45,2.45,0,0,0,1.28-.19Z" transform="translate(-623.12 -263.75)"/><path class="cls-1" d="M758.64,444.37a81.85,81.85,0,0,1-9.59,4A94.9,94.9,0,0,1,626,382c-.58-2.28-1-4.61-1.5-6.91-.21-.89,0-1.16,1-1.15q39.18,0,78.36,0c.71,0,1,.16,1.2.92,4.75,24,17.52,43,36.33,58.21A108.31,108.31,0,0,0,758.64,444.37Z" transform="translate(-623.12 -263.75)"/><path class="cls-1" d="M778.21,343.36c-10.67,0-21.35,0-32,0-1.06,0-1.26-.21-1-1.23q9.36-34.54,43.43-45.47a1.31,1.31,0,0,1,1.62.51,94.87,94.87,0,0,1,21.15,44.72c.27,1.44.25,1.45-1.28,1.45Z" transform="translate(-623.12 -263.75)"/><path class="cls-1" d="M778.35,374c10.68,0,21.36,0,32,0,1.09,0,1.22.34,1.05,1.28a95.27,95.27,0,0,1-21.31,45.05c-.53.62-1,.49-1.56.31-18.44-5.73-31.77-17.28-39.76-34.9a66.28,66.28,0,0,1-3.63-10.63c-.25-1,0-1.11.9-1.11Q762.22,374,778.35,374Z" transform="translate(-623.12 -263.75)"/><path class="cls-1" d="M663.49,364.22q-19.5,0-39,0c-1,0-1.24-.29-1.28-1.25-.13-2.92-.12-5.83,0-8.75,0-1,.37-1.15,1.26-1.15q28.8,0,57.59,0c6.84,0,13.68,0,20.51,0,.91,0,1.17.22,1.09,1.13a45.68,45.68,0,0,0,0,8.75c.12,1.16-.32,1.27-1.31,1.27Q682.94,364.19,663.49,364.22Z" transform="translate(-623.12 -263.75)"/><path class="cls-1" d="M778,364.22c-11.08,0-22.16,0-33.23,0-1.07,0-1.37-.33-1.41-1.32-.12-2.88-.13-5.76,0-8.63,0-.86.28-1.22,1.26-1.22q33.46,0,66.94,0c1,0,1.21.31,1.25,1.2.12,3,.12,5.91,0,8.87,0,.91-.38,1.09-1.23,1.09Q794.77,364.19,778,364.22Z" transform="translate(-623.12 -263.75)"/></svg>